<?xml version="1.0" encoding="utf-8"?>
<!-- Generator: Adobe Illustrator 19.1.0, SVG Export Plug-In . SVG Version: 6.00 Build 0)  -->
<svg version="1.1" xmlns="http://www.w3.org/2000/svg" xmlns:xlink="http://www.w3.org/1999/xlink" x="0px" y="0px"
	 viewBox="0 0 31.3 15" style="enable-background:new 0 0 31.3 15;" xml:space="preserve">
<style type="text/css">
	.st0{display:none;}
	.st1{display:inline;}
	.st2{clip-path:url(#SVGID_2_);}
	.st3{clip-path:url(#SVGID_4_);fill:#FFFFFF;}
	.st4{clip-path:url(#SVGID_6_);fill:#FFFFFF;}
	.st5{clip-path:url(#SVGID_8_);fill:#FFFFFF;}
</style>
<g id="Layer_2" class="st0">
	<rect x="-8.3" y="-6.4" class="st1" width="49.4" height="30.5"/>
</g>
<g id="Layer_1">
	<g>
		<defs>
			<rect id="SVGID_1_" x="8.2" width="15" height="15"/>
		</defs>
		<clipPath id="SVGID_2_">
			<use xlink:href="#SVGID_1_"  style="overflow:visible;"/>
		</clipPath>
		<g class="st2">
			<defs>
				<rect id="SVGID_3_" x="8.2" width="15" height="15"/>
			</defs>
			<clipPath id="SVGID_4_">
				<use xlink:href="#SVGID_3_"  style="overflow:visible;"/>
			</clipPath>
			<path class="st3" d="M8.2,15h15V0h-15V15z M22.2,14h-13v-2h13V14z M9.2,1h13v10h-13V1z M21.4,9.2l-0.7,0.7l-2.4-2.3l-1.6,1.7
				l-2.5-4.4l-3.4,5L10,9.2l4.3-6.3l2.6,4.6l1.3-1.4L21.4,9.2"/>
		</g>
	</g>
	<g>
		<defs>
			<rect id="SVGID_5_" x="19.3" y="3" width="12" height="12"/>
		</defs>
		<clipPath id="SVGID_6_">
			<use xlink:href="#SVGID_5_"  style="overflow:visible;"/>
		</clipPath>
		<polygon class="st4" points="30.5,3.2 24.5,3.2 24.5,4.2 29.5,4.2 29.5,12.2 24.5,12.2 24.5,13.2 29.5,13.2 29.5,14.2 24.5,14.2 
			24.5,15.2 30.5,15.2 		"/>
		<polygon class="st4" points="24.5,8.9 25.7,10.3 27.2,9 29.2,10.9 29.8,10.3 27.3,7.9 25.9,9 24.5,7.2 		"/>
	</g>
	<g>
		<defs>
			<rect id="SVGID_7_" x="0" y="3" width="12" height="12"/>
		</defs>
		<clipPath id="SVGID_8_">
			<use xlink:href="#SVGID_7_"  style="overflow:visible;"/>
		</clipPath>
		<polygon class="st5" points="0.5,3.2 6.5,3.2 6.5,4.2 1.5,4.2 1.5,12.2 6.5,12.2 6.5,13.2 1.5,13.2 1.5,14.2 6.5,14.2 6.5,15.2 
			0.5,15.2 		"/>
		<polygon class="st5" points="6.5,8.9 5.4,10.3 4.1,9 2.1,10.9 1.5,10.3 4,7.9 5.3,9 6.5,7.2 		"/>
	</g>
</g>
</svg>
