<svg id="Layer_1" data-name="Layer 1" xmlns="http://www.w3.org/2000/svg" viewBox="0 0 61.15 64"><defs><style>.cls-1{fill:#fff;}</style></defs><title>logo-only</title><path class="cls-1" d="M26.2,32.92a2.65,2.65,0,0,1-2.32-1.36L12.55,9.39H1.31C-.62,9.39.15,10.84.15,10.84L15.55,41a2.65,2.65,0,0,0,2.32,1.36H35S47,62.16,48.37,63.42c.48.48.77.58,1,.58.39,0,.39-.58.39-.58V41.25c-3.39-4.45-6.39-8.33-6.39-8.33Z"/><path class="cls-1" d="M59.8,0H9.64C7.71,0,8.48,1.45,8.48,1.45l4.07,7.94H48.37a1.4,1.4,0,0,1,1.36,1.55V41.15C54.08,46.77,59.12,53.25,59.8,54c.48.48.77.58,1,.58.39,0,.39-.58.39-.58V1.55A1.4,1.4,0,0,0,59.8,0Z"/></svg>