<?xml version="1.0" encoding="utf-8"?>
<!-- Generator: Adobe Illustrator 20.0.0, SVG Export Plug-In . SVG Version: 6.00 Build 0)  -->
<svg version="1.1" id="Ebene_1" xmlns="http://www.w3.org/2000/svg" xmlns:xlink="http://www.w3.org/1999/xlink" x="0px" y="0px"
	 viewBox="0 0 150.9 60.8" style="enable-background:new 0 0 150.9 60.8;" xml:space="preserve">
<style type="text/css">
	.st0{fill:#FFFFFF;}
	.st1{fill:#6B91CB;}
</style>
<g>
	<path id="logo-domain_colBase_1_" class="st0" d="M124.9,57.4c0,1.2-0.6,1.9-3.1,1.9c-2.4,0-3.2-0.8-3.2-2v-0.2
		c0-1.1,0.4-1.7,1.1-2.2l2.5,0.6c2,0.5,2.7,0.9,2.7,1.7V57.4z M124.7,48.4c0,1.3-0.6,2.2-3,2.2c-2.5,0-3-1.3-3-2.2v-0.2
		c0-1.2,0.5-2.4,3-2.4c2.4,0,3,1,3,2.4V48.4z M127.1,45.3v-0.6c0-0.3-0.2-0.5-0.5-0.5h-4.8c-3.8,0-4.9,1.9-4.9,3.9v0.2
		c0,1.1,0.3,1.9,1,2.6c-0.6,0.4-0.9,1-0.9,1.6l0,0c0,0.7,0.3,1.4,1,1.7l0.2,0.1c-0.7,0.5-1.4,1.6-1.4,2.8v0.2c0,2.2,1.6,3.5,5.1,3.5
		c3.6,0,5-1.3,5-3.4v-0.2c0-2.1-2.1-2.7-4.2-3.2l-3.3-0.8c-0.5-0.1-0.7-0.3-0.7-0.7c0-0.3,0.2-0.6,0.5-0.7c0.6,0.3,1.4,0.4,2.6,0.4
		c3.4,0,4.9-1.3,4.9-3.8v-0.2c0-1.2-0.4-1.8-0.7-2.3l0.8-0.2C126.9,45.7,127.1,45.6,127.1,45.3 M115.9,45.4v-0.9
		c0-0.3-0.2-0.4-0.5-0.4c-1,0-2,0.3-3.1,1.1v-0.5c0-0.2-0.2-0.4-0.4-0.4h-1c-0.2,0-0.4,0.2-0.4,0.4v11.2c0,0.2,0.2,0.4,0.4,0.4h1.1
		c0.2,0,0.4-0.2,0.4-0.4v-9.2c1.1-0.7,2-0.9,3-0.9C115.8,45.8,115.9,45.7,115.9,45.4 M106.4,51.2c0,2.3-0.9,3.7-3,3.7
		s-2.9-1.4-2.9-3.7v-1.7c0-2.3,0.9-3.7,2.9-3.7c2.1,0,3,1.4,3,3.7V51.2z M108.3,51.2v-1.7c0-3.2-1.7-5.4-4.9-5.4
		c-3.2,0-4.9,2.1-4.9,5.4v1.7c0,3.2,1.6,5.4,4.9,5.4C106.7,56.5,108.3,54.4,108.3,51.2 M96.5,55.9v-2c0-0.2-0.2-0.4-0.4-0.4H95
		c-0.2,0-0.4,0.2-0.4,0.4v2c0,0.2,0.2,0.4,0.4,0.4h1.1C96.3,56.4,96.5,56.2,96.5,55.9"/>
	<path id="logo-domain_colPrimary" class="st1" d="M92.1,55.9v-7.2c0-2.9-1.2-4.6-3.8-4.6c-1.3,0-2.3,0.3-3.5,1v-0.4
		c0-0.2-0.2-0.4-0.4-0.4h-1.1c-0.2,0-0.4,0.2-0.4,0.4v11.2c0,0.2,0.2,0.4,0.4,0.4h1.1c0.2,0,0.4-0.2,0.4-0.4v-9.3c1-0.5,2-0.9,3-0.9
		c1.7,0,2.4,0.7,2.4,2.9v7.2c0,0.2,0.2,0.4,0.4,0.4h1.1C91.9,56.4,92.1,56.2,92.1,55.9 M78.7,49.5h-5.8v-0.2c0-2.4,1.1-3.5,2.9-3.5
		c1.9,0,2.9,1,2.9,3.5V49.5z M80.7,50.5v-1.2c0-3.1-1.6-5.1-4.8-5.1c-3.1,0-4.9,2-4.9,5.1v2c0,4.1,2.5,5.3,5,5.3
		c1.5,0,2.7-0.1,3.9-0.4c0.4-0.1,0.4-0.2,0.4-0.5V55c0-0.2-0.2-0.3-0.4-0.3h-0.1c-1,0.2-2.6,0.2-3.9,0.2c-2,0-3.1-1-3.1-3.6V51h7.4
		C80.5,50.9,80.7,50.7,80.7,50.5 M68.8,55.9v-7.2c0-3.2-1.6-4.6-4-4.6c-0.9,0-2.3,0.2-3.4,0.7v-4.5c0-0.2-0.2-0.4-0.4-0.4h-1.1
		c-0.2,0-0.4,0.2-0.4,0.4V56c0,0.2,0.2,0.4,0.4,0.4H61c0.2,0,0.4-0.2,0.4-0.4v-9.5c1-0.4,2.4-0.6,3-0.6c1.4,0,2.4,0.7,2.4,2.9V56
		c0,0.2,0.2,0.4,0.4,0.4h1.1C68.6,56.4,68.8,56.2,68.8,55.9 M57.5,55.8V55c0-0.2-0.2-0.3-0.4-0.3H57c-1,0.1-1.6,0.2-2.7,0.2
		c-1.8,0-2.7-1.2-2.7-3.6v-1.7c0-2.5,1-3.7,2.7-3.7c1.1,0,1.8,0,2.7,0.2h0.1c0.2,0,0.4-0.1,0.4-0.3V45c0-0.3-0.1-0.4-0.4-0.5
		c-0.7-0.1-1.7-0.2-2.7-0.2c-3,0-4.7,2.1-4.7,5.3v1.7c0,3.2,1.7,5.3,4.7,5.3c1,0,2-0.1,2.7-0.2C57.4,56.2,57.5,56.1,57.5,55.8
		 M45.6,54.1c-1.1,0.6-2,0.9-3,0.9c-1.3,0-2-0.4-2-2v-0.3c0-1.6,0.7-2.2,3.4-2.2h1.6V54.1z M47.5,55.9v-7.7c0-2.6-1.2-4.1-4.3-4.1
		c-1.5,0-2.5,0.1-3.4,0.3c-0.3,0-0.5,0.2-0.5,0.4v0.8c0,0.3,0.2,0.4,0.4,0.4h0.1c0.9-0.1,1.9-0.2,3.4-0.2c1.7,0,2.4,0.6,2.4,2.5v0.9
		H44c-3.9,0-5.3,1.2-5.3,3.6V53c0,2.7,1.7,3.6,3.6,3.6c1.2,0,2.3-0.5,3.4-1.1V56c0,0.2,0.2,0.4,0.4,0.4h1
		C47.3,56.4,47.5,56.2,47.5,55.9 M34.6,54.1c-1.1,0.6-2,0.9-3,0.9c-1.3,0-2-0.4-2-2v-0.3c0-1.6,0.7-2.2,3.4-2.2h1.6V54.1z
		 M36.5,55.9v-7.7c0-2.6-1.2-4.1-4.3-4.1c-1.5,0-2.5,0.1-3.4,0.3c-0.3,0-0.5,0.2-0.5,0.4v0.8c0,0.3,0.2,0.4,0.4,0.4h0.1
		c0.9-0.1,1.9-0.2,3.4-0.2c1.7,0,2.4,0.6,2.4,2.5v0.9H33c-3.9,0-5.3,1.2-5.3,3.6V53c0,2.7,1.7,3.6,3.6,3.6c1.2,0,2.3-0.5,3.4-1.1V56
		c0,0.2,0.2,0.4,0.4,0.4h1C36.3,56.4,36.5,56.2,36.5,55.9"/>
	<path id="logo-domain_colBase" class="st0" d="M27.1,45.4v-0.9c0-0.3-0.2-0.4-0.5-0.4c-1,0-2,0.3-3.1,1.1v-0.5
		c0-0.2-0.2-0.4-0.4-0.4h-1c-0.2,0-0.4,0.2-0.4,0.4v11.2c0,0.2,0.2,0.4,0.4,0.4h1.1c0.2,0,0.4-0.2,0.4-0.4v-9.2c1.1-0.7,2-0.9,3-0.9
		C26.9,45.8,27.1,45.7,27.1,45.4 M17.5,51.1c0,2.4-0.7,3.8-2.9,3.8c-0.7,0-1.8-0.1-2.6-0.2V46c0.6-0.1,1.6-0.2,2.6-0.2
		c2.2,0,2.9,1.5,2.9,3.8V51.1z M19.5,51.1v-1.6c0-3.3-1.5-5.4-4.8-5.4c-1.3,0-2.9,0.2-4,0.5c-0.4,0.1-0.5,0.2-0.5,0.5v15.1
		c0,0.2,0.2,0.4,0.4,0.4h1.1c0.2,0,0.4-0.2,0.4-0.4v-4c0.9,0.2,1.9,0.2,2.6,0.2C17.9,56.5,19.5,54.6,19.5,51.1 M8,53.3
		C8,52,7.4,51.1,5.6,50l-2.2-1.3c-1-0.6-1.5-1-1.5-1.7c0-1.1,0.8-1.3,2-1.3s2.6,0.1,3.4,0.2h0.1c0.2,0.1,0.4-0.1,0.4-0.3v-0.7
		c0-0.2-0.1-0.4-0.4-0.4c-1-0.2-2.2-0.3-3.4-0.3c-2.3,0-4,0.6-4,2.9c0,1.4,0.9,2.3,2.2,3.1l2.2,1.3C5.7,52.2,6,52.7,6,53.3
		c0,1.2-0.7,1.6-2.2,1.6c-0.8,0-2.4-0.1-3.5-0.2h0.1C0.2,54.7,0,54.8,0,55v0.8c0,0.2,0.2,0.4,0.5,0.4c1.1,0.3,2.7,0.3,3.5,0.3
		C6.4,56.5,8,55.6,8,53.3"/>
	<path id="logo-only_colPrimary" class="st1" d="M112.8,7.4H141c0,0,1,0,1,1.2v23.8c-2.7-3.5-5-6.5-5-6.5h-13.5c0,0-1.3,0-1.8-1
		L112.8,7.4 M149.9,0h-38.2h-1.2c-1.5,0-0.9,1.2-0.9,1.2l3.2,6.2h-7.6H104c-1.5,0-0.9,1.2-0.9,1.2l12.1,23.7c0.4,1,1.8,1,1.8,1h13.5
		c0,0,9.4,15.6,10.5,16.6c0.3,0.3,0.6,0.5,0.7,0.5c0.3,0,0.3-0.5,0.3-0.5V32.4c3.4,4.4,7.3,9.5,7.9,10.1c0.3,0.3,0.6,0.5,0.7,0.5
		c0.3,0,0.3-0.5,0.3-0.5V1.2C150.9,0,149.9,0,149.9,0"/>
</g>
</svg>
